<?xml version="1.0" encoding="utf-8"?>
<!-- Generator: Adobe Illustrator 23.0.4, SVG Export Plug-In . SVG Version: 6.00 Build 0)  -->
<svg version="1.1" id="Ebene_1" xmlns="http://www.w3.org/2000/svg" xmlns:xlink="http://www.w3.org/1999/xlink" x="0px" y="0px"
	 viewBox="0 0 120 80" style="enable-background:new 0 0 120 80;" xml:space="preserve">
<style type="text/css">
	.st0{fill:#DE7053;}
	.st1{opacity:0.4;fill:#FFFFFF;enable-background:new    ;}
</style>
<rect class="st0" width="120" height="80"/>
<path class="st1" d="M20,20v40h80V20H20z M79.3,57h-4.2L97,35.1v4.2L79.3,57z M97,43.6v4.2L87.8,57h-4.2L97,43.6z M97,30.8L70.8,57
	h-4.2L97,26.6V30.8z M41.2,23h4.2L23,45.4v-4.2L41.2,23z M23,37v-4.2l9.7-9.7H37L23,37z M49.7,23h4.2L23,53.9v-4.2L49.7,23z
	 M58.2,23h4.2l-34,34h-4.2L58.2,23z M66.7,23h4.2l-34,34h-4.2L66.7,23z M75.1,23h4.2l-34,34h-4.2L75.1,23z M83.6,23h4.2l-34,34h-4.2
	L83.6,23z M92.1,23h4.2l-34,34h-4.2L92.1,23z M28.5,23L23,28.5V23H28.5z M92.1,57l4.9-4.9V57H92.1z"/>
</svg>
