<?xml version="1.0" encoding="utf-8"?>
<!-- Generator: Adobe Illustrator 16.0.4, SVG Export Plug-In . SVG Version: 6.00 Build 0)  -->
<!DOCTYPE svg PUBLIC "-//W3C//DTD SVG 1.1//EN" "http://www.w3.org/Graphics/SVG/1.1/DTD/svg11.dtd">
<svg version="1.1" id="Ebene_1" xmlns="http://www.w3.org/2000/svg" xmlns:xlink="http://www.w3.org/1999/xlink" x="0px" y="0px"
	 width="120px" height="80px" viewBox="0 0 120 80" enable-background="new 0 0 120 80" xml:space="preserve">
<rect fill="#4fc177" width="120" height="80"/>
<path opacity="0.4" fill="#FFFFFF" enable-background="new    " d="M20,20v25h23.333V20H20z M25.038,33h10.628v3H25.038V33z
	 M38.417,30H25.038v-3h13.379V30z"/>
<rect x="48.333" y="35" opacity="0.4" fill="#FFFFFF" enable-background="new    " width="23.333" height="10"/>
<rect x="48.333" y="20" opacity="0.4" fill="#FFFFFF" enable-background="new    " width="23.333" height="10"/>
<rect x="76.668" y="20" opacity="0.4" fill="#FFFFFF" enable-background="new    " width="23.332" height="25"/>
<path opacity="0.4" fill="#FFFFFF" enable-background="new    " d="M76.668,50v10H100V50H76.668z M94.811,57.5
	c-1.381,0-2.5-1.119-2.5-2.5s1.119-2.5,2.5-2.5s2.5,1.119,2.5,2.5S96.191,57.5,94.811,57.5z"/>
</svg>
